<svg xmlns="http://www.w3.org/2000/svg" version="1.1" xmlns:xlink="http://www.w3.org/1999/xlink" xmlns:svgjs="http://svgjs.dev/svgjs" width="339" height="457"><svg xmlns="http://www.w3.org/2000/svg" xmlns:xlink="http://www.w3.org/1999/xlink" width="339" zoomAndPan="magnify" viewBox="0 0 254.25 342.749994" height="457" preserveAspectRatio="xMidYMid meet" version="1.0"><defs><clipPath id="SvgjsClipPath1153"><path d="M 105 14.835938 L 147 14.835938 L 147 276 L 105 276 Z M 105 14.835938 " clip-rule="nonzero"></path></clipPath><clipPath id="SvgjsClipPath1152"><path d="M 6 14.835938 L 48 14.835938 L 48 226 L 6 226 Z M 6 14.835938 " clip-rule="nonzero"></path></clipPath><clipPath id="SvgjsClipPath1151"><path d="M 56 14.835938 L 97 14.835938 L 97 117 L 56 117 Z M 56 14.835938 " clip-rule="nonzero"></path></clipPath><clipPath id="SvgjsClipPath1150"><path d="M 105 295 L 147 295 L 147 341.621094 L 105 341.621094 Z M 105 295 " clip-rule="nonzero"></path></clipPath><clipPath id="SvgjsClipPath1149"><path d="M 155 14.835938 L 196 14.835938 L 196 216 L 155 216 Z M 155 14.835938 " clip-rule="nonzero"></path></clipPath><clipPath id="SvgjsClipPath1148"><path d="M 204 14.835938 L 246 14.835938 L 246 196 L 204 196 Z M 204 14.835938 " clip-rule="nonzero"></path></clipPath><clipPath id="SvgjsClipPath1147"><path d="M 5 0.378906 L 245 0.378906 L 245 4 L 5 4 Z M 5 0.378906 " clip-rule="nonzero"></path></clipPath></defs><g clip-path="url(#7dbf3397f8)"><path fill="#ff3131" d="M 105.835938 -98.691406 L 105.835938 111.988281 L 121.390625 120.984375 L 121.390625 141.816406 L 105.835938 150.8125 C 105.835938 158.570312 105.835938 255.773438 105.835938 263.527344 L 125.988281 275.164062 L 146.140625 263.527344 C 146.140625 255.773438 146.140625 158.570312 146.140625 150.8125 L 130.585938 141.816406 L 130.585938 120.984375 L 146.140625 111.988281 L 146.140625 -98.691406 C 132.824219 -101.007812 119.191406 -101.007812 105.835938 -98.691406 Z M 105.835938 -98.691406 " fill-opacity="1" fill-rule="nonzero"></path></g><g clip-path="url(#3ef9aa6828)"><path fill="#ff3131" d="M 47.058594 190.558594 L 31.503906 181.5625 L 31.503906 160.730469 L 47.058594 151.734375 L 47.058594 -70.382812 C -0.00390625 -28.636719 6.714844 18.183594 6.714844 74.640625 L 6.714844 151.734375 L 22.269531 160.730469 L 22.269531 181.5625 L 6.714844 190.558594 L 6.714844 213.828125 L 26.867188 225.464844 L 47.019531 213.828125 L 47.019531 190.558594 Z M 47.058594 190.558594 " fill-opacity="1" fill-rule="nonzero"></path></g><g clip-path="url(#ab1fbdfef0)"><path fill="#ff3131" d="M 71.847656 51.410156 L 71.847656 72.242188 L 56.296875 81.238281 L 56.296875 104.511719 L 76.449219 116.144531 L 96.601562 104.511719 L 96.601562 81.238281 L 81.046875 72.242188 L 81.046875 51.410156 L 96.601562 42.414062 L 96.601562 -96.730469 C 81.886719 -92.972656 68.25 -86.457031 56.253906 -77.777344 L 56.253906 42.414062 Z M 71.847656 51.410156 " fill-opacity="1" fill-rule="nonzero"></path></g><g clip-path="url(#aab7154276)"><path fill="#ff3131" d="M 105.835938 329.984375 L 125.988281 341.617188 L 146.179688 329.984375 L 146.179688 306.671875 L 125.988281 295.035156 L 105.835938 306.671875 Z M 105.835938 329.984375 " fill-opacity="1" fill-rule="nonzero"></path></g><path fill="#ff3131" d="M 76.449219 182.601562 L 96.601562 170.964844 L 96.601562 147.652344 L 76.449219 136.019531 L 56.296875 147.652344 L 56.296875 170.964844 Z M 76.449219 182.601562 " fill-opacity="1" fill-rule="nonzero"></path><path fill="#ff3131" d="M 204.917969 250.453125 L 225.109375 262.128906 L 245.261719 250.453125 L 245.261719 227.183594 L 225.109375 215.546875 L 204.917969 227.183594 Z M 204.917969 250.453125 " fill-opacity="1" fill-rule="nonzero"></path><g clip-path="url(#ce76e3b802)"><path fill="#ff3131" d="M 170.929688 150.8125 L 170.929688 171.644531 L 155.378906 180.640625 L 155.378906 203.914062 L 175.527344 215.546875 L 195.679688 203.914062 L 195.679688 180.640625 L 180.128906 171.644531 L 180.128906 150.8125 L 195.679688 141.816406 L 195.679688 -77.738281 C 183.6875 -86.414062 170.050781 -92.933594 155.335938 -96.691406 C 155.335938 -23.800781 155.335938 68.964844 155.335938 141.855469 Z M 170.929688 150.8125 " fill-opacity="1" fill-rule="nonzero"></path></g><g clip-path="url(#5817fdaf26)"><path fill="#ff3131" d="M 220.511719 91.15625 L 220.511719 111.988281 L 204.957031 120.984375 C 204.957031 141.976562 204.957031 163.007812 204.957031 184.039062 L 225.109375 195.675781 L 245.261719 184.039062 C 245.261719 163.007812 245.261719 142.015625 245.261719 120.984375 L 229.707031 111.988281 L 229.707031 91.15625 L 245.261719 82.160156 C 245.261719 22.542969 253.21875 -27.558594 204.917969 -70.382812 L 204.917969 82.160156 Z M 220.511719 91.15625 " fill-opacity="1" fill-rule="nonzero"></path></g><g clip-path="url(#8488e840e6)"><path stroke-linecap="butt" transform="matrix(0.747794, 0, 0, 0.747794, 6.966509, 0.379409)" fill="none" stroke-linejoin="miter" d="M -0.00222664 2.000004 L 315.853858 2.000004 " stroke="#ff3131" stroke-width="4" stroke-opacity="1" stroke-miterlimit="4"></path></g></svg><style>@media (prefers-color-scheme: light) { :root { filter: none; } }
@media (prefers-color-scheme: dark) { :root { filter: none; } }
</style></svg>